<?xml version="1.0" encoding="UTF-8"?>
<svg width="488px" height="512px" viewBox="0 0 488 512" version="1.1" xmlns="http://www.w3.org/2000/svg" xmlns:xlink="http://www.w3.org/1999/xlink">
    <title>document-svgrepo-com</title>
    <g id="Page-1" stroke="none" stroke-width="1" fill="none" fill-rule="evenodd">
        <g id="document-svgrepo-com" transform="translate(0.762000, 0.000000)" fill-rule="nonzero">
            <rect id="Rectangle" fill="#EFEFEF" x="10.895" y="10.894" width="354.043" height="490.213"></rect>
            <rect id="Rectangle" fill="#FFBB00" x="54.466" y="57.191" width="266.894" height="57.191"></rect>
            <rect id="Rectangle" fill="#265ED5" transform="translate(319.140225, 248.993697) rotate(45.000000) translate(-319.140225, -248.993697) " x="285.098552" y="99.2091336" width="68.0833471" height="299.569127"></rect>
            <path d="M449.299,99.916 L470.476,121.093 C477.301,127.918 477.301,138.982 470.476,145.807 L449.133,167.15 L400.99,119.007 L422.333,97.664 C429.159,90.839 442.475,93.091 449.299,99.916 Z" id="Path" fill="#00D5FF"></path>
            <polygon id="Path" fill="#FFBB00" points="237.303 378.982 162.044 405.787 189.159 330.838"></polygon>
            <g id="Group" fill="#2F3A45">
                <path d="M332.257,114.383 L332.257,57.191 C332.257,51.175 327.379,46.297 321.363,46.297 L54.47,46.297 C48.454,46.297 43.576,51.175 43.576,57.191 L43.576,114.382 C43.576,120.398 48.454,125.276 54.47,125.276 L321.364,125.276 C327.379,125.277 332.257,120.399 332.257,114.383 Z M310.47,103.489 L65.363,103.489 L65.363,68.085 L310.47,68.085 L310.47,103.489 L310.47,103.489 Z" id="Shape"></path>
                <path d="M478.18,113.39 L457.003,92.213 C451.009,86.219 442.184,82.64 433.395,82.64 C426.015,82.64 419.352,85.239 414.631,89.959 L375.831,128.759 L375.831,10.894 C375.83,4.878 370.953,0 364.937,0 L10.894,0 C4.878,0 0,4.878 0,10.894 L0,501.107 C0,507.123 4.878,512.001 10.894,512.001 L364.937,512.001 C370.953,512.001 375.831,507.123 375.831,501.107 L375.831,255.858 L478.181,153.508 C489.241,142.449 489.241,124.451 478.18,113.39 Z M354.044,490.213 L21.789,490.213 L21.789,21.787 L354.044,21.787 L354.044,150.548 L181.455,323.136 C180.313,324.278 179.486,325.616 178.958,327.037 C178.944,327.07 178.927,327.096 178.914,327.132 L151.798,402.081 C150.364,406.046 151.346,410.481 154.32,413.47 C156.401,415.562 159.194,416.68 162.044,416.68 C163.268,416.68 164.503,416.474 165.697,416.048 L240.956,389.243 C242.455,388.709 243.779,387.849 244.884,386.773 C244.924,386.744 244.964,386.723 245.002,386.684 L354.04,277.646 L354.04,490.213 L354.044,490.213 L354.044,490.213 Z M193.573,350.659 L217.415,374.502 L180.144,387.777 L193.573,350.659 Z M237.303,363.576 L204.565,330.838 L400.991,134.412 L433.729,167.15 L237.303,363.576 Z M462.775,138.104 L449.133,151.746 L416.395,119.008 L430.037,105.366 C430.625,104.779 431.881,104.428 433.395,104.428 C436.346,104.428 439.719,105.739 441.597,107.618 L462.774,128.795 C465.34,131.363 465.34,135.538 462.775,138.104 Z" id="Shape"></path>
                <path d="M57.874,448 C57.874,454.016 62.752,458.894 68.768,458.894 L307.066,458.894 C313.082,458.894 317.96,454.016 317.96,448 C317.96,441.984 313.082,437.106 307.066,437.106 L68.768,437.106 C62.75,437.106 57.874,441.984 57.874,448 Z" id="Path"></path>
                <path d="M246.47,198.809 L68.768,198.809 C62.752,198.809 57.874,203.687 57.874,209.703 C57.874,215.719 62.752,220.597 68.768,220.597 L246.47,220.597 C252.486,220.597 257.364,215.719 257.364,209.703 C257.364,203.686 252.486,198.809 246.47,198.809 Z" id="Path"></path>
                <path d="M291.406,151.149 L187.917,151.149 C181.901,151.149 177.023,156.027 177.023,162.043 C177.023,168.059 181.901,172.937 187.917,172.937 L291.406,172.937 C297.422,172.937 302.3,168.059 302.3,162.043 C302.3,156.027 297.422,151.149 291.406,151.149 Z" id="Path"></path>
                <path d="M68.768,172.936 L141.619,172.936 C147.635,172.936 152.513,168.058 152.513,162.042 C152.513,156.026 147.635,151.148 141.619,151.148 L68.768,151.148 C62.752,151.148 57.874,156.026 57.874,162.042 C57.874,168.059 62.75,172.936 68.768,172.936 Z" id="Path"></path>
                <path d="M200.172,246.468 L68.768,246.468 C62.752,246.468 57.874,251.346 57.874,257.362 C57.874,263.378 62.752,268.256 68.768,268.256 L200.172,268.256 C206.188,268.256 211.066,263.378 211.066,257.362 C211.066,251.346 206.188,246.468 200.172,246.468 Z" id="Path"></path>
                <path d="M159.321,294.128 L68.768,294.128 C62.752,294.128 57.874,299.006 57.874,305.022 C57.874,311.038 62.752,315.916 68.768,315.916 L159.321,315.916 C165.337,315.916 170.215,311.038 170.215,305.022 C170.215,299.006 165.337,294.128 159.321,294.128 Z" id="Path"></path>
                <path d="M145.704,352.681 C145.704,346.665 140.826,341.787 134.81,341.787 L68.768,341.787 C62.752,341.787 57.874,346.665 57.874,352.681 C57.874,358.697 62.752,363.575 68.768,363.575 L134.811,363.575 C140.826,363.574 145.704,358.697 145.704,352.681 Z" id="Path"></path>
                <path d="M68.768,389.447 C62.752,389.447 57.874,394.325 57.874,400.341 C57.874,406.357 62.752,411.235 68.768,411.235 L113.704,411.235 C119.72,411.235 124.598,406.357 124.598,400.341 C124.598,394.325 119.72,389.447 113.704,389.447 L68.768,389.447 Z" id="Path"></path>
            </g>
        </g>
    </g>
</svg>